<svg width="364" height="58" viewBox="0 0 364 58" fill="none" xmlns="http://www.w3.org/2000/svg">
<path fill-rule="evenodd" clip-rule="evenodd" d="M10 3H231C234.866 3 238 6.13401 238 10V26H241V10C241 4.47715 236.523 0 231 0H10C4.47715 0 0 4.47715 0 10V48C0 53.5228 4.47715 58 10 58H231C236.523 58 241 53.5229 241 48V31H238V48C238 51.866 234.866 55 231 55H10C6.13401 55 3 51.866 3 48V10C3 6.13401 6.13401 3 10 3Z" fill="#FF0000"/>
<path d="M238 30C238 29.4477 238.448 29 239 29H314C314.552 29 315 29.4477 315 30V31C315 31.5523 314.552 32 314 32H239C238.448 32 238 31.5523 238 31V30Z" fill="#FF0000"/>
<path d="M238 25C238 24.4477 238.448 24 239 24H314C314.552 24 315 24.4477 315 25V26C315 26.5523 314.552 27 314 27H239C238.448 27 238 26.5523 238 26V25Z" fill="#FF0000"/>
<circle cx="329.5" cy="27.5" r="15.5" fill="#FF0000"/>
<circle cx="342" cy="27" r="22" fill="#8D0000"/>
</svg>
